<?xml version="1.0" encoding="UTF-8"?>
<svg version="1.1" xmlns="http://www.w3.org/2000/svg" width="500" height="500">
<path d="M0 0 C16.83 0 33.66 0 51 0 C51.33 9.9 51.66 19.8 52 30 C54.97 26.7 57.94 23.4 61 20 C67.26169969 13.38401993 73.66683639 7.40971086 81 2 C77.37 1.67 73.74 1.34 70 1 C70 0.67 70 0.34 70 0 C81.22 0 92.44 0 104 0 C100.75569829 3.24430171 97.50446769 6.47749365 94.234375 9.6953125 C92.40610491 11.50506177 90.57798439 13.31496216 88.75 15.125 C87.84636719 16.011875 86.94273437 16.89875 86.01171875 17.8125 C79.88912453 23.89104678 74.37433567 30.25720553 69 37 C68.12502149 38.03938812 67.24492818 39.07453914 66.35546875 40.1015625 C50.50312268 58.55312207 36.25967331 79.62276842 29 103 C28.60554688 104.25103516 28.60554688 104.25103516 28.203125 105.52734375 C25.82669902 114.40682729 25.27944075 125.825373 30 134 C33.56060922 137.98148502 36.96772933 140.7021441 42.42578125 141.23828125 C69.56190223 141.9359623 94.07443045 122.45872024 114 106 C114.84087158 105.30559814 114.84087158 105.30559814 115.69873047 104.59716797 C122.17543412 99.22311894 128.50790344 93.70538239 134.73828125 88.046875 C136.80673875 86.1749031 138.89560914 84.3313661 141 82.5 C145.71701284 78.38918961 150.35638889 74.19332155 155 70 C158.32834792 66.99440097 161.66091263 63.99366454 165 61 C165.71285156 60.35804688 166.42570313 59.71609375 167.16015625 59.0546875 C169.08469063 57.34151817 171.0307901 55.66152085 173 54 C173.928125 53.20142578 173.928125 53.20142578 174.875 52.38671875 C176.6875 50.9375 176.6875 50.9375 180 49 C182.9375 49.6875 182.9375 49.6875 185 51 C184.48138318 54.85883971 183.68726637 56.80948081 180.90234375 59.5234375 C180.2695752 60.14847168 179.63680664 60.77350586 178.98486328 61.41748047 C177.97141846 62.38645264 177.97141846 62.38645264 176.9375 63.375 C176.25155762 64.04547363 175.56561523 64.71594727 174.85888672 65.40673828 C170.95395894 69.20049374 166.98132727 72.88589257 162.8203125 76.3984375 C160.61313564 78.34037422 158.56462386 80.40738124 156.5 82.5 C153.19013302 85.84933729 149.79253051 88.99925956 146.21875 92.0625 C144.01621635 93.98583924 141.86724931 95.96060959 139.72412109 97.94970703 C134.5688063 102.73151951 129.30472897 107.29684169 123.8203125 111.703125 C121.34469887 113.71927571 118.9268106 115.78849504 116.51782227 117.88330078 C97.78979559 134.07973108 73.22736883 154.76593256 47 153 C35.59019622 151.38566325 26.70850678 147.97730882 19.5625 138.6875 C11.61857983 126.89974749 10.44205801 112.91327416 12.61328125 99.09765625 C15.85436747 83.76497315 22.88306559 69.79466258 31.67016602 56.92431641 C34.44563311 52.95994085 34.44563311 52.95994085 34.5703125 48.33984375 C32.72381359 45.58846851 30.81620122 42.96801412 28.75 40.375 C23.7396451 34.0088249 18.92380996 27.51242552 14.13525391 20.97827148 C11.48291256 17.36227291 8.8260324 13.75257393 6.10546875 10.1875 C5.68080322 9.63006104 5.2561377 9.07262207 4.81860352 8.49829102 C3.70847893 7.0466595 2.59274513 5.59932232 1.4765625 4.15234375 C0 2 0 2 0 0 Z " fill="#000000" transform="translate(277,287)"/>
<path d="M0 0 C8.21613776 -0.45518769 16.42223049 -0.82042594 24.64766026 -1.03624344 C28.46906638 -1.13993099 32.28129589 -1.27988396 36.09741211 -1.50878906 C60.60058586 -2.94014253 60.60058586 -2.94014253 67.80337524 1.87350464 C72.45617124 6.42093814 75.60277457 11.62348973 78.56330872 17.37449646 C80.96007341 21.75450089 84.02620294 25.61289286 87.0625 29.5625 C88.22349689 31.1341799 89.38146662 32.70810466 90.53515625 34.28515625 C94.018902 39.02678481 97.50890145 43.76378352 101 48.5 C104.52572937 53.28347453 108.05038927 58.06771953 111.5703125 62.85546875 C112.75512964 64.46620372 113.94002492 66.07688122 115.125 67.6875 C115.70113037 68.4710083 116.27726074 69.2545166 116.87084961 70.06176758 C119.68331592 73.88024828 122.51013285 77.68643439 125.37109375 81.46875 C125.90911621 82.18071533 126.44713867 82.89268066 127.00146484 83.6262207 C128.00003303 84.94478673 129.00139731 86.26124284 130.00634766 87.57495117 C132.38059057 90.70893492 134.59366219 93.88143211 136.66381836 97.22583008 C137.10422958 97.93572586 137.54464081 98.64562164 137.99839783 99.37702942 C138.32892654 99.91260971 138.65945526 100.44819 139 101 C133.3446215 101.32363503 127.6947167 101.55820576 122.03222656 101.71411133 C120.11102382 101.7791302 118.19045567 101.86759078 116.27148438 101.98071289 C100.84696359 102.86658064 100.84696359 102.86658064 96.21411133 99.82910156 C92.63675137 96.41229713 90.38128255 92.29443146 88 88 C86.84523928 86.39390566 85.66580219 84.80501359 84.453125 83.2421875 C83.38400285 81.78749636 82.3162994 80.33176151 81.25 78.875 C80.06123408 77.25648386 78.8724308 75.63799515 77.68359375 74.01953125 C77.08272949 73.20049316 76.48186523 72.38145508 75.86279297 71.53759766 C72.6848937 67.20849084 69.49838835 62.8857288 66.3125 58.5625 C65.72436523 57.76376465 65.13623047 56.9650293 64.53027344 56.14208984 C63.98016602 55.39523926 63.43005859 54.64838867 62.86328125 53.87890625 C62.38157471 53.2247876 61.89986816 52.57066895 61.40356445 51.89672852 C59.94431789 49.92475313 58.47190743 47.96254324 57 46 C56.67 64.15 56.34 82.3 56 101 C50.72 101 45.44 101 40 101 C39.99589111 99.24526367 39.99178223 97.49052734 39.98754883 95.68261719 C39.9680339 89.83907457 39.92553976 83.99593264 39.86790943 78.15266037 C39.83383827 74.61503628 39.80856091 71.07783488 39.80444336 67.54003906 C39.79928606 63.45847845 39.75397018 59.3781707 39.70703125 55.296875 C39.7109639 54.04638367 39.71489655 52.79589233 39.71894836 51.50750732 C39.5645852 42.07477448 37.70320996 33.76126995 31.8125 26.1875 C30.884375 25.465625 29.95625 24.74375 29 24 C27.89978516 23.13955078 27.89978516 23.13955078 26.77734375 22.26171875 C18.31108981 15.94147045 10.26042831 13.87866997 0 12 C0 8.04 0 4.08 0 0 Z " fill="#000000" transform="translate(123,112)"/>
<path d="M0 0 C30.03 0 60.06 0 91 0 C91 3.96 91 7.92 91 12 C89.81664062 12.23074219 88.63328125 12.46148437 87.4140625 12.69921875 C72.57951506 15.37894979 72.57951506 15.37894979 60.5 23.75 C55.58982722 34.3887077 55.8466022 46.63437913 55.68359375 58.12890625 C55.66281265 59.35915024 55.64203156 60.58939423 55.62062073 61.85691833 C55.5556167 65.75872605 55.49647022 69.6605969 55.4375 73.5625 C55.39474447 76.21941588 55.35065226 78.87630751 55.30664062 81.53320312 C55.19998611 88.02207192 55.09858228 94.51100375 55 101 C49.72 101 44.44 101 39 101 C38.970271 98.85371094 38.970271 98.85371094 38.93994141 96.6640625 C38.86303178 91.28141665 38.77445691 85.89901163 38.68261719 80.51660156 C38.64467587 78.20089523 38.60976703 75.88513691 38.578125 73.56933594 C39.56168854 47.13586808 39.56168854 47.13586808 30.8125 23.1875 C22.76829524 16.9308963 13.71185218 15.23877112 4 13 C2.68 12.67 1.36 12.34 0 12 C0 8.04 0 4.08 0 0 Z " fill="#000000" transform="translate(273,112)"/>
<path d="M0 0 C5.61 0 11.22 0 17 0 C17.34611328 1.80984375 17.34611328 1.80984375 17.69921875 3.65625 C19.8741532 17.13324158 19.8741532 17.13324158 27.98046875 27.43359375 C35.36318143 31.60105468 43.80684529 33.15518371 52 35 C53.98 35.495 53.98 35.495 56 36 C56 39.96 56 43.92 56 48 C25.64 48 -4.72 48 -36 48 C-36 44.04 -36 40.08 -36 36 C-34.69804687 35.67386719 -33.39609375 35.34773438 -32.0546875 35.01171875 C-30.32803333 34.57067122 -28.60147588 34.12924493 -26.875 33.6875 C-25.59109375 33.36749023 -25.59109375 33.36749023 -24.28125 33.04101562 C-19.49962324 31.80882719 -15.40397709 30.28230424 -11 28 C-10.01 28 -9.02 28 -8 28 C-3.37455956 19.43054561 -1.52355887 9.52224296 0 0 Z " fill="#000000" transform="translate(163,287)"/>
<path d="M0 0 C1.375 1.375 1.375 1.375 3.25 3.75 C2.55859375 5.64453125 2.55859375 5.64453125 1.25 7.75 C-0.90234375 8.69921875 -0.90234375 8.69921875 -3.6875 9.4375 C-28.47126886 17.07470455 -58.36094753 35.15409379 -73.7890625 56.58203125 C-78.71586388 60.18938583 -84.14284767 59.26948085 -90.0625 59.0625 C-91.28001953 59.03994141 -92.49753906 59.01738281 -93.75195312 58.99414062 C-96.75255482 58.9353053 -99.75064797 58.8531414 -102.75 58.75 C-98.85328116 52.61879902 -94.0964266 47.46546888 -89.11669922 42.20019531 C-87.94246547 40.95422381 -86.78407601 39.69335387 -85.62890625 38.4296875 C-68.67165542 20.51383965 -43.10626745 3.21395353 -18.75 -2.25 C-17.595 -2.518125 -16.44 -2.78625 -15.25 -3.0625 C-10.04406815 -3.34138921 -4.37654339 -3.12610242 0 0 Z " fill="#000000" transform="translate(442.75,154.25)"/>
<path d="M0 0 C2.3125 2.1875 2.3125 2.1875 4 5 C3.80654378 7.77287249 3.23457223 9.53085554 2 12 C3.01320312 11.566875 4.02640625 11.13375 5.0703125 10.6875 C6.42164397 10.12444522 7.77321959 9.56197613 9.125 9 C10.12273437 8.57074219 10.12273437 8.57074219 11.140625 8.1328125 C15.21412502 6.45548896 18.51632285 5.43790636 23 6 C25.75 8.375 25.75 8.375 28 11 C28.99 11.99 28.99 11.99 30 13 C30.36899748 20.74894713 27.62637912 24.50968907 22.61328125 30.234375 C19.24787251 33.79597349 15.75277361 37.21127958 12.2421875 40.62890625 C9.21215174 43.83314267 7.13658777 47.15414201 5 51 C10.264829 49.18454172 14.4943313 47.26660981 19 44 C20.9375 44.8125 20.9375 44.8125 23 46 C23.33 46.99 23.66 47.98 24 49 C22.60823368 49.96423026 21.2113777 50.92111602 19.8125 51.875 C19.03519531 52.40867187 18.25789063 52.94234375 17.45703125 53.4921875 C13.00176572 56.22626142 9.26433685 57.65804211 4 57 C0.49139848 55.05077693 -0.73215215 53.65622724 -2.25 49.9375 C-1.67345849 40.85697115 5.76961144 33.92583612 11.71484375 27.5625 C15.9027003 22.86637368 20.17376236 17.65247528 23 12 C8.2308857 16.66716294 -4.19587346 24.14559474 -16 34 C-16.93457031 34.75796875 -17.86914062 35.5159375 -18.83203125 36.296875 C-26.91281155 43.18692516 -32.87476656 51.38405209 -39 60 C-40.875 59.6875 -40.875 59.6875 -43 59 C-45 56 -45 56 -44.8203125 53.1171875 C-41.93511206 42.15342584 -30.47898592 32.9180633 -22.86425781 24.96142578 C-20.05846059 22.00938612 -17.30713894 19.00881901 -14.5625 16 C-13.67691406 15.030625 -12.79132813 14.06125 -11.87890625 13.0625 C-10.94884766 12.0415625 -10.94884766 12.0415625 -10 11 C-17.36095182 11.31323199 -23.30883089 12.93914605 -30 16 C-30.12375 17.134375 -30.2475 18.26875 -30.375 19.4375 C-30.58125 20.613125 -30.7875 21.78875 -31 23 C-31.66 23.33 -32.32 23.66 -33 24 C-35.7479865 21.76726097 -36.89632752 20.60907583 -37.5 17.0625 C-36.8669923 13.18532782 -35.84624517 11.70028388 -33 9 C-27.55540479 6.28818621 -22.20347507 5.05550189 -16.25 3.9375 C-14.56653033 3.61945452 -12.88416805 3.29547544 -11.203125 2.96484375 C-10.46739258 2.8268335 -9.73166016 2.68882324 -8.97363281 2.54663086 C-5.18093226 1.49617854 -4.28298118 0 0 0 Z " fill="#EEB96C" transform="translate(193,215)"/>
<path d="M0 0 C2.51511886 2.37916649 3.93956106 3.85166011 4.125 7.375 C1.24319938 14.09920144 -3.6486372 17.76657894 -10 21 C-11.66979326 21.99477045 -13.33779419 22.99260254 -15 24 C-15 23.34 -15 22.68 -15 22 C-14.34 22 -13.68 22 -13 22 C-13.2475 20.9275 -13.495 19.855 -13.75 18.75 C-14 15 -14 15 -12.0625 12.5625 C-11.381875 12.046875 -10.70125 11.53125 -10 11 C-17.36095182 11.31323199 -23.30883089 12.93914605 -30 16 C-30.12375 17.134375 -30.2475 18.26875 -30.375 19.4375 C-30.58125 20.613125 -30.7875 21.78875 -31 23 C-31.66 23.33 -32.32 23.66 -33 24 C-35.7479865 21.76726097 -36.89632752 20.60907583 -37.5 17.0625 C-36.8669923 13.18532782 -35.84624517 11.70028388 -33 9 C-27.55540479 6.28818621 -22.20347507 5.05550189 -16.25 3.9375 C-14.56653033 3.61945452 -12.88416805 3.29547544 -11.203125 2.96484375 C-10.46739258 2.8268335 -9.73166016 2.68882324 -8.97363281 2.54663086 C-5.18093226 1.49617854 -4.28298118 0 0 0 Z " fill="#EAB768" transform="translate(193,215)"/>
<path d="M0 0 C0.99 0.66 1.98 1.32 3 2 C3.1490716 11.09336772 -0.91974815 15.565294 -7 22 C-9.56693443 24.5631428 -12.15861598 27.09853581 -14.7578125 29.62890625 C-17.78784826 32.83314267 -19.86341223 36.15414201 -22 40 C-16.735171 38.18454172 -12.5056687 36.26660981 -8 33 C-6.0625 33.8125 -6.0625 33.8125 -4 35 C-3.67 35.99 -3.34 36.98 -3 38 C-4.39176632 38.96423026 -5.7886223 39.92111602 -7.1875 40.875 C-7.96480469 41.40867187 -8.74210937 41.94234375 -9.54296875 42.4921875 C-13.95988451 45.20272722 -17.77858192 46.7614568 -23 46 C-25.875 43.5 -25.875 43.5 -28 41 C-27.34 41 -26.68 41 -26 41 C-26.06832031 40.28070313 -26.13664063 39.56140625 -26.20703125 38.8203125 C-25.56327075 30.05059395 -15.46711653 22.3812244 -9.5625 16.640625 C-4.75476587 11.68631361 -1.08213432 6.90161224 0 0 Z " fill="#9F9F9D" transform="translate(220,226)"/>
<path d="M0 0 C0.495 1.485 0.495 1.485 1 3 C0.47535156 3.11214844 -0.04929687 3.22429687 -0.58984375 3.33984375 C-15.056057 7.02259022 -27.71949219 15.49362186 -39 25 C-40.39798828 26.13501953 -40.39798828 26.13501953 -41.82421875 27.29296875 C-49.91128851 34.18024499 -55.87330243 42.3819926 -62 51 C-63.9375 50.6875 -63.9375 50.6875 -66 50 C-66.495 48.515 -66.495 48.515 -67 47 C-66.34 47 -65.68 47 -65 47 C-64.74863281 46.44054687 -64.49726563 45.88109375 -64.23828125 45.3046875 C-61.80361008 40.7732806 -58.24817124 36.9671839 -55 33 C-54.55269531 32.42636719 -54.10539063 31.85273438 -53.64453125 31.26171875 C-42.99370903 17.77552406 -17.98404044 -0.84630779 0 0 Z " fill="#9C948D" transform="translate(216,224)"/>
<path d="M0 0 C2.375 1.6875 2.375 1.6875 4 4 C4.25 6.75 4.25 6.75 4 9 C5.65 8.67 7.3 8.34 9 8 C9.99 9.32 10.98 10.64 12 12 C-0.34221947 20.34717917 -0.34221947 20.34717917 -6 21 C-9.6810821 19.89567537 -12.15404778 18.7666442 -15 16.1875 C-16.46272428 12.98779064 -16.06697687 11.33430273 -15 8 C-10.75853622 2.03902388 -7.49624937 -0.93703117 0 0 Z " fill="#BAA690" transform="translate(399,251)"/>
<path d="M0 0 C2.8125 2.25 2.8125 2.25 5 5 C5 6.32 5 7.64 5 9 C6.65 8.67 8.3 8.34 10 8 C10.99 9.32 11.98 10.64 13 12 C5.71359944 16.83731812 -1.0729131 20.83444241 -10.0625 19.625 C-11.5165625 19.315625 -11.5165625 19.315625 -13 19 C-14.52770364 16.5074309 -15.11694219 14.71436423 -14.640625 11.8046875 C-13.14790946 6.77921186 -11.61172135 3.83798237 -7 1 C-4.35955695 -0.32022153 -2.93650531 -0.40974493 0 0 Z " fill="#907E61" transform="translate(253,251)"/>
<path d="M0 0 C0.66 1.32 1.32 2.64 2 4 C2.66 4 3.32 4 4 4 C4.33 5.65 4.66 7.3 5 9 C6.32 8.67 7.64 8.34 9 8 C9 8.66 9 9.32 9 10 C9.99 10.33 10.98 10.66 12 11 C12 11.66 12 12.32 12 13 C4.62171707 17.21064314 -2.29164621 20.81317395 -11 20 C-13.8125 18.6875 -13.8125 18.6875 -15 16 C-14.89478457 10.79183629 -13.8145466 7.0234047 -10.5625 2.9375 C-6.95885565 0.2127933 -4.39957511 -0.11890744 0 0 Z " fill="#F5BE74" transform="translate(302,251)"/>
<path d="M0 0 C1.32 0 2.64 0 4 0 C4 0.66 4 1.32 4 2 C5.1446875 2.1546875 5.1446875 2.1546875 6.3125 2.3125 C9.19700648 3.05039701 10.35495989 3.53243984 12 6 C11.75 8 11.75 8 11 10 C10.67 10.99 10.34 11.98 10 13 C11.175625 12.2575 11.175625 12.2575 12.375 11.5 C15 10 15 10 17 10 C17 10.66 17 11.32 17 12 C17.99 12.33 18.98 12.66 20 13 C20 13.66 20 14.32 20 15 C17.91796875 16.47265625 17.91796875 16.47265625 15.1875 18.0625 C14.29417969 18.58972656 13.40085937 19.11695313 12.48046875 19.66015625 C8.19359058 21.97574556 4.84058776 22.34575627 0 22 C-1.9375 20.9375 -1.9375 20.9375 -3 19 C-3.04092937 16.66702567 -3.04241723 14.33294775 -3 12 C-3.66 11.34 -4.32 10.68 -5 10 C-4.34 9.01 -3.68 8.02 -3 7 C-2.835 6.154375 -2.67 5.30875 -2.5 4.4375 C-2 2 -2 2 0 0 Z " fill="#E0B473" transform="translate(342,249)"/>
<path d="M0 0 C0.99 0 1.98 0 3 0 C3.33 1.65 3.66 3.3 4 5 C5.32 4.67 6.64 4.34 8 4 C8 4.66 8 5.32 8 6 C8.99 6.33 9.98 6.66 11 7 C11 7.66 11 8.32 11 9 C3.30214132 13.39301883 -3.0754426 15.96486395 -12 16 C-12.33 15.34 -12.66 14.68 -13 14 C-11 12 -11 12 -8.125 11.1875 C-4.37368451 9.76200011 -3.1166575 8.37097306 -1 5 C-0.21053391 2.31492671 -0.21053391 2.31492671 0 0 Z " fill="#B7A790" transform="translate(303,255)"/>
<path d="M0 0 C0.99 0.33 1.98 0.66 3 1 C2.28199219 1.57363281 1.56398437 2.14726562 0.82421875 2.73828125 C-3.81619792 6.45446556 -8.42474912 10.20377833 -13 14 C-13.83015625 14.66773438 -14.6603125 15.33546875 -15.515625 16.0234375 C-23.36495219 22.63206459 -29.07404933 30.70163265 -35 39 C-36.9375 38.6875 -36.9375 38.6875 -39 38 C-39.495 36.515 -39.495 36.515 -40 35 C-39.01 35.33 -38.02 35.66 -37 36 C-36.59910156 35.46632813 -36.19820312 34.93265625 -35.78515625 34.3828125 C-31.14770786 28.30470553 -26.1994594 22.6023004 -21 17 C-20.45988281 16.39414063 -19.91976562 15.78828125 -19.36328125 15.1640625 C-15.55840276 11.08124578 -11.23841515 7.78841726 -6.75 4.5 C-6.13487549 4.04173828 -5.51975098 3.58347656 -4.88598633 3.11132812 C-3.31420053 1.98988909 -1.66081255 0.98480342 0 0 Z " fill="#9D9B9A" transform="translate(189,236)"/>
<path d="M0 0 C0.66 0 1.32 0 2 0 C1.45276317 3.37462715 0.9451 5.08235 -1 8 C2.27773504 7.24849977 2.27773504 7.24849977 4 4 C7.125 3.3125 7.125 3.3125 10 3 C10.99 4.32 11.98 5.64 13 7 C11.42065361 7.98558449 9.83634827 8.96322541 8.25 9.9375 C7.36828125 10.48277344 6.4865625 11.02804687 5.578125 11.58984375 C2.40021392 13.32806481 0.4314355 14.37353153 -3.140625 13.44140625 C-3.83671875 13.15136719 -4.5328125 12.86132812 -5.25 12.5625 C-5.95640625 12.27503906 -6.6628125 11.98757813 -7.390625 11.69140625 C-7.92171875 11.46324219 -8.4528125 11.23507812 -9 11 C-9 10.34 -9 9.68 -9 9 C-8.071875 8.401875 -7.14375 7.80375 -6.1875 7.1875 C-2.95976402 4.97238707 -1.85666346 3.34199424 0 0 Z " fill="#BFB9AE" transform="translate(253,256)"/>
<path d="M0 0 C-3.9816978 3.72185572 -7.09758903 4.70746894 -12.4375 5.5625 C-17.46705972 6.37961313 -21.65927256 7.24011412 -26 10 C-26.81870185 13.56206661 -26.81870185 13.56206661 -27 17 C-27.66 17.33 -28.32 17.66 -29 18 C-29.99 17.01 -30.98 16.02 -32 15 C-31.81280552 11.41990566 -31.12353243 8.9161874 -29 6 C-23.85251207 3.54881527 -18.53615383 2.2755276 -13 1 C-12.03835937 0.74347656 -11.07671875 0.48695313 -10.0859375 0.22265625 C-6.34674265 -0.73402738 -3.68207434 -1.12417314 0 0 Z " fill="#AA9A7E" transform="translate(189,221)"/>
<path d="M0 0 C1.9375 0.8125 1.9375 0.8125 4 2 C4.33 2.99 4.66 3.98 5 5 C3.60823368 5.96423026 2.2113777 6.92111602 0.8125 7.875 C0.03519531 8.40867187 -0.74210938 8.94234375 -1.54296875 9.4921875 C-5.74403477 12.07026617 -9.05491279 13.28257641 -14 13 C-15.125 9.25 -15.125 9.25 -14 7 C-12.05322256 6.27408299 -10.10477215 5.55201454 -8.14453125 4.86328125 C-5.08939873 3.63343737 -2.66051774 1.92887536 0 0 Z " fill="#BDAFA4" transform="translate(212,259)"/>
<path d="M0 0 C2.99332739 0.9977758 3.94766315 1.7522025 6 4 C-5.33712984 11.66742597 -5.33712984 11.66742597 -12 13 C-12 12.01 -12 11.02 -12 10 C-13.65 9.67 -15.3 9.34 -17 9 C-16.34 8.01 -15.68 7.02 -15 6 C-13.00511766 5.63729412 -11.00401011 5.30830925 -9 5 C-5.76939059 3.5430585 -2.94934395 1.9662293 0 0 Z " fill="#E8D3B5" transform="translate(405,259)"/>
<path d="M0 0 C0 0.99 0 1.98 0 3 C-1.155 3.165 -2.31 3.33 -3.5 3.5 C-14.04658004 5.83257694 -24.16768409 12.22550715 -33.1796875 17.96875 C-35 19 -35 19 -37 19 C-37 18.34 -37 17.68 -37 17 C-33.07041768 13.49945396 -28.56796809 10.59263054 -24 8 C-23.26007813 7.53335938 -22.52015625 7.06671875 -21.7578125 6.5859375 C-18.7646724 4.86466996 -15.77628296 3.57302971 -12.5625 2.3125 C-10.92474609 1.65701172 -10.92474609 1.65701172 -9.25390625 0.98828125 C-5.97634186 -0.00718548 -3.40152607 -0.18982876 0 0 Z " fill="#DCB778" transform="translate(216,221)"/>
<path d="M0 0 C0.99 0.99 1.98 1.98 3 3 C2.34 3 1.68 3 1 3 C0.9175 3.86625 0.835 4.7325 0.75 5.625 C-0.81745071 12.67852819 -5.55140586 16.60377859 -10.546875 21.5 C-16.29616935 27.35915348 -21.75429835 32.96955903 -24 41 C-24.66 40.67 -25.32 40.34 -26 40 C-24.52683671 30.69155066 -17.89629537 24.74596392 -11.40966797 18.45849609 C-5.92232266 13.07458802 -1.2320051 7.78464761 0 0 Z " fill="#716354" transform="translate(220,226)"/>
<path d="M0 0 C0.33 0.99 0.66 1.98 1 3 C-1.31 3.66 -3.62 4.32 -6 5 C-6 6.32 -6 7.64 -6 9 C-8.4375 11.625 -8.4375 11.625 -11 14 C-11.33 14.66 -11.66 15.32 -12 16 C-11.34 16 -10.68 16 -10 16 C-10 16.66 -10 17.32 -10 18 C-10.99 18.33 -11.98 18.66 -13 19 C-14.52770364 16.5074309 -15.11694219 14.71436423 -14.640625 11.8046875 C-13.14790946 6.77921186 -11.61172135 3.83798237 -7 1 C-4.53721199 -0.231394 -2.7204945 -0.07159196 0 0 Z " fill="#E8BE85" transform="translate(253,251)"/>
<path d="M0 0 C-1.48634837 3.59937335 -3.48276103 5.50383652 -6.4375 8 C-14.53413441 15.11095718 -22.05549882 22.98075683 -28 32 C-28.63549805 30.19116211 -28.63549805 30.19116211 -29 28 C-27.34563573 25.666005 -25.72810908 23.6603197 -23.8125 21.5625 C-22.81850612 20.43924814 -21.82500887 19.3155566 -20.83203125 18.19140625 C-20.34686035 17.65064453 -19.86168945 17.10988281 -19.36181641 16.55273438 C-18.15751176 15.17959391 -17.01669708 13.75133252 -15.88671875 12.31640625 C-14.06206614 10.07620129 -12.19203831 8.25022028 -10 6.375 C-9.34 5.80523437 -8.68 5.23546875 -8 4.6484375 C-2.36018957 0 -2.36018957 0 0 0 Z " fill="#6C624C" transform="translate(180,241)"/>
<path d="M0 0 C0 0.66 0 1.32 0 2 C0.66 2.33 1.32 2.66 2 3 C0.80761719 3.34933594 -0.38476562 3.69867188 -1.61328125 4.05859375 C-3.17969593 4.51820045 -4.74610171 4.97783745 -6.3125 5.4375 C-7.49102539 5.78264648 -7.49102539 5.78264648 -8.69335938 6.13476562 C-9.45068359 6.35712891 -10.20800781 6.57949219 -10.98828125 6.80859375 C-12.03302612 7.11494751 -12.03302612 7.11494751 -13.09887695 7.42749023 C-14.74173766 7.92222612 -16.37230856 8.45743619 -18 9 C-19.22969878 12.51190809 -19.22969878 12.51190809 -20 16 C-20.66 16 -21.32 16 -22 16 C-22.33398951 12.40961276 -22.27140423 10.46681528 -20.4375 7.3125 C-15.25882318 2.39939635 -7.09876763 0 0 0 Z " fill="#E9C38D" transform="translate(178,219)"/>
<path d="M0 0 C0.99 0.33 1.98 0.66 3 1 C3.75 3.125 3.75 3.125 4 6 C0.3805223 12.46335304 -3.51778731 15.69996445 -10 19 C-10.66 18.67 -11.32 18.34 -12 18 C-11.31164062 17.34644531 -11.31164062 17.34644531 -10.609375 16.6796875 C-3.21970601 9.53489228 -3.21970601 9.53489228 0 0 Z " fill="#634E31" transform="translate(193,217)"/>
<path d="M0 0 C-1.78770901 2.06997885 -2.95424891 2.98326179 -5.5625 3.9375 C-8.07098557 4.78260314 -8.07098557 4.78260314 -9.25 6.75 C-10.15829245 9.47487736 -10.61241231 12.15769026 -11 15 C-11.99 15 -12.98 15 -14 15 C-15.35652897 11.26954534 -15.02987333 10.06417234 -13.3125 6.375 C-9.63106361 0.62745136 -6.91780128 -0.39910392 0 0 Z " fill="#EBBA6F" transform="translate(398,252)"/>
<path d="M0 0 C0.99 0.33 1.98 0.66 3 1 C3 1.66 3 2.32 3 3 C0.91796875 4.47265625 0.91796875 4.47265625 -1.8125 6.0625 C-2.70582031 6.58972656 -3.59914063 7.11695313 -4.51953125 7.66015625 C-8.83221086 9.9896824 -12.15593894 10.09139738 -17 10 C-17.33 9.01 -17.66 8.02 -18 7 C-17.12988281 6.83564453 -17.12988281 6.83564453 -16.2421875 6.66796875 C-11.40253723 5.6856635 -7.34633884 4.45178089 -3 2 C-2.67 2.33 -2.34 2.66 -2 3 C-1.34 2.01 -0.68 1.02 0 0 Z " fill="#B1AEA5" transform="translate(359,261)"/>
<path d="M0 0 C0 0.66 0 1.32 0 2 C-2 3.33333333 -4 4.66666667 -6 6 C-6.1490712 8.0745356 -6.1490712 8.0745356 -5 10 C-6.32 11.32 -7.64 12.64 -9 14 C-7.68 14.33 -6.36 14.66 -5 15 C-5 15.66 -5 16.32 -5 17 C-7.875 16.6875 -7.875 16.6875 -11 16 C-11.66 15.01 -12.32 14.02 -13 13 C-11.3470641 7.74949773 -9.20776324 4.66830642 -5 1 C-3 0 -3 0 0 0 Z " fill="#948772" transform="translate(398,254)"/>
<path d="M0 0 C-0.56613419 5.09520768 -4.45395941 7.71899494 -8.1875 10.8125 C-10 12 -10 12 -12 12 C-11.40024865 8.44947202 -10.02728246 6.45553003 -7.6875 3.75 C-7.09324219 3.04359375 -6.49898438 2.3371875 -5.88671875 1.609375 C-4 0 -4 0 0 0 Z " fill="#9B9992" transform="translate(354,255)"/>
<path d="M0 0 C0.99 0.33 1.98 0.66 3 1 C3 1.66 3 2.32 3 3 C0.5859375 4.7265625 0.5859375 4.7265625 -2.625 6.625 C-3.66914063 7.25664062 -4.71328125 7.88828125 -5.7890625 8.5390625 C-9.17824296 10.08109838 -11.32672824 10.29783285 -15 10 C-14.67 9.01 -14.34 8.02 -14 7 C-12.05741482 6.24272103 -10.10972528 5.49454503 -8.1328125 4.83203125 C-6.04392019 4.0171337 -4.48983809 3.06778991 -2.6875 1.75 C-1.800625 1.1725 -0.91375 0.595 0 0 Z " fill="#EED3BC" transform="translate(212,259)"/>
<path d="M0 0 C0 0.66 0 1.32 0 2 C0.99 2.33 1.98 2.66 3 3 C3 3.66 3 4.32 3 5 C-0.55760365 7.61588503 -3.64477147 8.49357808 -8 9 C-8.66 7.68 -9.32 6.36 -10 5 C-9.01 4.67 -8.02 4.34 -7 4 C-6.67 3.34 -6.34 2.68 -6 2 C-3.85118612 0.75230162 -2.50320403 0 0 0 Z " fill="#AFA492" transform="translate(311,259)"/>
<path d="M0 0 C-4.16434887 4.61052911 -8.49969875 4.66952074 -14.35546875 5.1171875 C-17 5 -17 5 -19 3 C-16.586238 2.30048937 -14.16989766 1.61516081 -11.75 0.9375 C-11.06808594 0.73833984 -10.38617188 0.53917969 -9.68359375 0.33398438 C-3.41657839 -1.40009269 -3.41657839 -1.40009269 0 0 Z " fill="#8C7B60" transform="translate(189,221)"/>
<path d="M0 0 C-1.74552064 1.15264553 -3.49660196 2.29687327 -5.25 3.4375 C-6.22453125 4.07558594 -7.1990625 4.71367187 -8.203125 5.37109375 C-10.58381615 6.7576136 -12.31780307 7.546581 -15 8 C-15.33 7.01 -15.66 6.02 -16 5 C-14.5459375 4.5978125 -14.5459375 4.5978125 -13.0625 4.1875 C-11.5465625 3.5996875 -11.5465625 3.5996875 -10 3 C-9.67 2.01 -9.34 1.02 -9 0 C-5.18354533 -2.16609589 -3.72319235 -2.11959991 0 0 Z " fill="#BAAB98" transform="translate(411,263)"/>
<path d="M0 0 C-0.433125 0.8353125 -0.433125 0.8353125 -0.875 1.6875 C-2.05907564 4.01411753 -2.05907564 4.01411753 -2.9375 6.625 C-4 9 -4 9 -7 11 C-8.32 11 -9.64 11 -11 11 C-11 10.01 -11 9.02 -11 8 C-7.66666667 5 -7.66666667 5 -5 5 C-5 4.34 -5 3.68 -5 3 C-5.99 2.67 -6.98 2.34 -8 2 C-4.77208445 -0.1519437 -3.71599191 -0.20086443 0 0 Z " fill="#978363" transform="translate(302,254)"/>
<path d="M0 0 C1.9375 0.3125 1.9375 0.3125 4 1 C5.35462193 5.0638658 4.5066082 7.02803292 3 11 C0.625 14 0.625 14 -2 16 C-4.3125 15.8125 -4.3125 15.8125 -6 15 C-5.2575 14.505 -4.515 14.01 -3.75 13.5 C-0.34137326 10.40124842 1.18726063 7.17233866 3 3 C1.35 3 -0.3 3 -2 3 C-1.34 2.01 -0.68 1.02 0 0 Z " fill="#E0C495" transform="translate(299,251)"/>
<path d="M0 0 C0.33 0.99 0.66 1.98 1 3 C-0.25296875 3.27714844 -1.5059375 3.55429688 -2.796875 3.83984375 C-4.44792292 4.20570096 -6.09896424 4.57158793 -7.75 4.9375 C-8.575 5.11990234 -9.4 5.30230469 -10.25 5.49023438 C-11.44882813 5.75610352 -11.44882813 5.75610352 -12.671875 6.02734375 C-13.77160645 6.27085571 -13.77160645 6.27085571 -14.89355469 6.51928711 C-16.93661753 6.98553546 -18.96893762 7.48420649 -21 8 C-18.4749588 5.04110293 -15.74678913 3.80337205 -12.1875 2.3125 C-11.17042969 1.87550781 -10.15335938 1.43851563 -9.10546875 0.98828125 C-5.88448973 -0.03675987 -3.35670316 -0.18564726 0 0 Z " fill="#A28866" transform="translate(216,224)"/>
<path d="M0 0 C0.99 0.33 1.98 0.66 3 1 C2.65066406 1.44730469 2.30132812 1.89460938 1.94140625 2.35546875 C-1.52758372 6.9644101 -3 10.14531539 -3 16 C-7.875 13.25 -7.875 13.25 -9 11 C-8.01 10.67 -7.02 10.34 -6 10 C-4.83714249 8.20506426 -4.83714249 8.20506426 -3.9375 6.0625 C-2.77548298 3.49112901 -2.02316022 2.02316022 0 0 Z " fill="#98918B" transform="translate(201,256)"/>
<path d="M0 0 C0.66 0.99 1.32 1.98 2 3 C1.16855469 3.87011719 1.16855469 3.87011719 0.3203125 4.7578125 C-5.18550787 10.59071552 -5.18550787 10.59071552 -8 18 C-8.66 17.67 -9.32 17.34 -10 17 C-9.43818225 13.12208721 -8.34625496 10.59084674 -6.125 7.375 C-5.61195313 6.61960938 -5.09890625 5.86421875 -4.5703125 5.0859375 C-3.15921961 3.21150067 -1.7063275 1.6041522 0 0 Z " fill="#83755E" transform="translate(204,249)"/>
<path d="M0 0 C3.61897173 -0.32899743 5.39503139 -0.44576634 8.375 1.75 C10 4 10 4 10 8 C8.68 8.33 7.36 8.66 6 9 C6 8.34 6 7.68 6 7 C3.69 7.66 1.38 8.32 -1 9 C0.28965176 7.62437146 1.62689293 6.29233607 3 5 C3.66 5 4.32 5 5 5 C4.33131686 1.88667752 4.33131686 1.88667752 1.9375 0.8125 C1.298125 0.544375 0.65875 0.27625 0 0 Z " fill="#B09B79" transform="translate(393,251)"/>
<path d="M0 0 C0 0.99 0 1.98 0 3 C-0.66 3 -1.32 3 -2 3 C-1.67 3.99 -1.34 4.98 -1 6 C-1.99 5.67 -2.98 5.34 -4 5 C-5.77811812 5.75175783 -5.77811812 5.75175783 -7.5 6.9375 C-10.08494379 8.60977723 -10.78779497 9 -14 9 C-12.53824146 5.11305116 -10.69873837 3.99184772 -7 2.25 C-6.113125 1.82203125 -5.22625 1.3940625 -4.3125 0.953125 C-2 0 -2 0 0 0 Z " fill="#DDD2B3" transform="translate(359,259)"/>
<path d="M0 0 C0 0.66 0 1.32 0 2 C-3.46153846 5 -3.46153846 5 -6 5 C-6 5.99 -6 6.98 -6 8 C-5.01 8.33 -4.02 8.66 -3 9 C-3.33 9.99 -3.66 10.98 -4 12 C-6.0625 12.6875 -6.0625 12.6875 -8 13 C-8.66 12.01 -9.32 11.02 -10 10 C-9.67 9.01 -9.34 8.02 -9 7 C-9 7.66 -9 8.32 -9 9 C-8.34 9 -7.68 9 -7 9 C-7.061875 8.071875 -7.12375 7.14375 -7.1875 6.1875 C-7 3 -7 3 -5.75 1.125 C-4 0 -4 0 0 0 Z " fill="#CFB17F" transform="translate(297,257)"/>
<path d="M0 0 C1.32 0 2.64 0 4 0 C4 0.99 4 1.98 4 3 C3.67 3.33 3.34 3.66 3 4 C3.33 4.66 3.66 5.32 4 6 C2.35 6.33 0.7 6.66 -1 7 C-1.33 8.32 -1.66 9.64 -2 11 C-2.99 10.67 -3.98 10.34 -5 10 C-4.34 9.01 -3.68 8.02 -3 7 C-2.835 6.154375 -2.67 5.30875 -2.5 4.4375 C-2 2 -2 2 0 0 Z " fill="#E5C086" transform="translate(342,249)"/>
<path d="M0 0 C0.99 0.33 1.98 0.66 3 1 C2.25 8.625 2.25 8.625 0 12 C-0.33 11.67 -0.66 11.34 -1 11 C-2.65 12.98 -4.3 14.96 -6 17 C-6.66 16.67 -7.32 16.34 -8 16 C-7.59007812 15.56429687 -7.18015625 15.12859375 -6.7578125 14.6796875 C-2.63970826 10.1280986 0 6.37240882 0 0 Z " fill="#F1BA6D" transform="translate(216,222)"/>
<path d="M0 0 C0.66 0 1.32 0 2 0 C1.62403791 2.78211944 1.32681541 4.5879284 -0.4375 6.8125 C-2 8 -2 8 -4 8 C-4.33 8.99 -4.66 9.98 -5 11 C-6.32 11 -7.64 11 -9 11 C-9 10.34 -9 9.68 -9 9 C-8.071875 8.401875 -7.14375 7.80375 -6.1875 7.1875 C-2.95976402 4.97238707 -1.85666346 3.34199424 0 0 Z " fill="#E3C6A7" transform="translate(253,256)"/>
<path d="M0 0 C0.165 0.639375 0.33 1.27875 0.5 1.9375 C1.781786 4.16119241 1.781786 4.16119241 3.9140625 4.48828125 C5.93575155 4.7275978 7.96841939 4.86893028 10 5 C10 5.66 10 6.32 10 7 C6.7 7.33 3.4 7.66 0 8 C-0.33 7.34 -0.66 6.68 -1 6 C-0.34 6 0.32 6 1 6 C1 5.34 1 4.68 1 4 C0.34 4 -0.32 4 -1 4 C-0.67 2.68 -0.34 1.36 0 0 Z " fill="#AAA293" transform="translate(242,263)"/>
<path d="M0 0 C0.33 0.99 0.66 1.98 1 3 C0.06027344 3.30744141 0.06027344 3.30744141 -0.8984375 3.62109375 C-1.71570313 3.89050781 -2.53296875 4.15992188 -3.375 4.4375 C-4.18710938 4.70433594 -4.99921875 4.97117188 -5.8359375 5.24609375 C-8.01031799 5.95179729 -8.01031799 5.95179729 -10 7 C-10.33 6.01 -10.66 5.02 -11 4 C-7.20307814 1.17438373 -4.81430721 -0.56638908 0 0 Z " fill="#F0C17D" transform="translate(253,251)"/>
<path d="M0 0 C0 0.99 0 1.98 0 3 C-3.96 3.66 -7.92 4.32 -12 5 C-12 4.01 -12 3.02 -12 2 C-7.82262526 0.40861915 -4.46839215 -0.21278058 0 0 Z " fill="#F5D28B" transform="translate(216,221)"/>
<path d="M0 0 C0.99 0.33 1.98 0.66 3 1 C3.75 3.125 3.75 3.125 4 6 C2.07106125 9.44453348 -0.06294179 12.35664761 -3 15 C-3.66 14.67 -4.32 14.34 -5 14 C-4.175 12.989375 -3.35 11.97875 -2.5 10.9375 C0.17261016 7.24854513 0.46733615 4.57989423 0 0 Z " fill="#8F7D5F" transform="translate(193,217)"/>
<path d="M0 0 C1.32 0.99 2.64 1.98 4 3 C3.63692621 5.68674602 3.33095772 7.55872304 1.6875 9.75 C-0.19904732 11.14744246 -1.70199304 11.6037919 -4 12 C-3.360625 11.2575 -2.72125 10.515 -2.0625 9.75 C-0.21666593 7.2888879 0.56069174 5.96533074 1 3 C0.34 3 -0.32 3 -1 3 C-0.67 2.01 -0.34 1.02 0 0 Z " fill="#AA9C84" transform="translate(254,253)"/>
<path d="M0 0 C-1.50349377 3.66786393 -3.63728792 5.68910393 -6.625 8.25 C-7.44226563 8.95640625 -8.25953125 9.6628125 -9.1015625 10.390625 C-9.72804687 10.92171875 -10.35453125 11.4528125 -11 12 C-11.33 11.01 -11.66 10.02 -12 9 C-10.89902432 7.87187697 -9.79408444 6.74762189 -8.6875 5.625 C-8.07261719 4.99851563 -7.45773438 4.37203125 -6.82421875 3.7265625 C-2.88687783 0 -2.88687783 0 0 0 Z " fill="#695B4A" transform="translate(180,241)"/>
<path d="M0 0 C1.38294718 0.01329757 2.76582404 0.03715018 4.1484375 0.0703125 C4.85484375 0.07933594 5.56125 0.08835937 6.2890625 0.09765625 C8.03399848 0.12123647 9.77876045 0.15710789 11.5234375 0.1953125 C7.93967974 3.77907026 2.38843609 4.11919011 -2.5390625 4.3203125 C-3.1784375 4.2790625 -3.8178125 4.2378125 -4.4765625 4.1953125 C-4.8065625 3.5353125 -5.1365625 2.8753125 -5.4765625 2.1953125 C-3.4765625 0.1953125 -3.4765625 0.1953125 0 0 Z " fill="#999890" transform="translate(295.4765625,266.8046875)"/>
<path d="M0 0 C0.33 0.99 0.66 1.98 1 3 C-5.625 6 -5.625 6 -9 6 C-9.33 5.01 -9.66 4.02 -10 3 C-8.70990357 2.49596232 -7.41786211 1.99690074 -6.125 1.5 C-5.04605469 1.08234375 -5.04605469 1.08234375 -3.9453125 0.65625 C-2 0 -2 0 0 0 Z " fill="#EDC77B" transform="translate(204,224)"/>
<path d="M0 0 C0.66 0.33 1.32 0.66 2 1 C2 2.65 2 4.3 2 6 C1.34 6 0.68 6 0 6 C0.33 6.99 0.66 7.98 1 9 C-0.32 9 -1.64 9 -3 9 C-3.33 9.66 -3.66 10.32 -4 11 C-3.39301257 6.87248551 -1.96189209 3.6678852 0 0 Z " fill="#F8BD5B" transform="translate(178,231)"/>
<path d="M0 0 C0.33 1.32 0.66 2.64 1 4 C0.01 4.33 -0.98 4.66 -2 5 C-3.22969878 8.51190809 -3.22969878 8.51190809 -4 12 C-4.66 12 -5.32 12 -6 12 C-6.35671933 8.16526716 -6.29771416 6.44657125 -4.125 3.1875 C-2 1 -2 1 0 0 Z " fill="#F0CC9A" transform="translate(162,223)"/>
<path d="M0 0 C-1.40191353 2.99254618 -3.03367489 5.5954611 -5 8.25 C-5.515625 8.95640625 -6.03125 9.6628125 -6.5625 10.390625 C-7.2740625 11.18726563 -7.2740625 11.18726563 -8 12 C-8.66 12 -9.32 12 -10 12 C-9.40716913 8.39428893 -7.97258223 6.45570562 -5.5625 3.75 C-4.94503906 3.04359375 -4.32757813 2.3371875 -3.69140625 1.609375 C-2 0 -2 0 0 0 Z " fill="#7F735C" transform="translate(352,255)"/>
<path d="M0 0 C0.99 0.66 1.98 1.32 3 2 C1.02 4.31 -0.96 6.62 -3 9 C-3.33 8.01 -3.66 7.02 -4 6 C-4.99 5.67 -5.98 5.34 -7 5 C-5.68 4.01 -4.36 3.02 -3 2 C-3 2.99 -3 3.98 -3 5 C-2.34 5 -1.68 5 -1 5 C-0.67 3.35 -0.34 1.7 0 0 Z " fill="#E5BA6F" transform="translate(163,250)"/>
<path d="M0 0 C0.66 0.33 1.32 0.66 2 1 C-3 4.33333333 -8 7.66666667 -13 11 C-13.33 10.01 -13.66 9.02 -14 8 C-11.7136988 6.63597957 -9.42178251 5.28365726 -7.125 3.9375 C-6.47402344 3.54755859 -5.82304687 3.15761719 -5.15234375 2.75585938 C-3.46934275 1.77555467 -1.73703801 0.88101568 0 0 Z " fill="#867665" transform="translate(193,232)"/>
<path d="M0 0 C0.99 0.33 1.98 0.66 3 1 C3 1.66 3 2.32 3 3 C-0.2491277 5.3208055 -3.05879291 6.43697042 -7 7 C-6.6875 5.0625 -6.6875 5.0625 -6 3 C-5.01 2.67 -4.02 2.34 -3 2 C-2.67 2.33 -2.34 2.66 -2 3 C-1.34 2.01 -0.68 1.02 0 0 Z " fill="#B4A48D" transform="translate(359,261)"/>
<path d="M0 0 C-0.33 0.99 -0.66 1.98 -1 3 C-1.66 3 -2.32 3 -3 3 C-3 3.66 -3 4.32 -3 5 C-4.98 5.66 -6.96 6.32 -9 7 C-7.53563715 2.36285097 -7.53563715 2.36285097 -5.0625 0.6875 C-3 0 -3 0 0 0 Z " fill="#E1D7BB" transform="translate(263,259)"/>
<path d="M0 0 C1.32 0.33 2.64 0.66 4 1 C2.52351062 2.33629746 1.0437367 3.66896671 -0.4375 5 C-1.26121094 5.7425 -2.08492187 6.485 -2.93359375 7.25 C-5 9 -5 9 -6 9 C-6 7.35 -6 5.7 -6 4 C-4.7934375 3.566875 -4.7934375 3.566875 -3.5625 3.125 C-0.8673532 2.26737432 -0.8673532 2.26737432 0 0 Z " fill="#E6B967" transform="translate(175,240)"/>
<path d="M0 0 C-1.40531906 3.39618772 -2.9943213 4.93359589 -6 7 C-6.66 7.66 -7.32 8.32 -8 9 C-8.66 7.68 -9.32 6.36 -10 5 C-9.01 4.67 -8.02 4.34 -7 4 C-6.67 3.34 -6.34 2.68 -6 2 C-3.85118612 0.75230162 -2.50320403 0 0 0 Z " fill="#D2C9B5" transform="translate(311,259)"/>
<path d="M0 0 C0.33 0.99 0.66 1.98 1 3 C-0.98 3.99 -0.98 3.99 -3 5 C-3.99 4.01 -4.98 3.02 -6 2 C-6.99 2.33 -7.98 2.66 -9 3 C-8.67 2.01 -8.34 1.02 -8 0 C-4.71023192 -1.09658936 -3.28696233 -0.79953138 0 0 Z " fill="#CDA86A" transform="translate(351,252)"/>
<path d="M0 0 C0 0.66 0 1.32 0 2 C-3.19641774 4.39731331 -6.00118212 6.38479725 -10 7 C-8.2054392 2.26888516 -5.07937287 0 0 0 Z " fill="#77654B" transform="translate(398,254)"/>
<path d="M0 0 C1.5 1.375 1.5 1.375 3 3 C3 3.66 3 4.32 3 5 C2.360625 5.103125 1.72125 5.20625 1.0625 5.3125 C0.381875 5.539375 -0.29875 5.76625 -1 6 C-1.33 6.99 -1.66 7.98 -2 9 C-2.66 9 -3.32 9 -4 9 C-3.46930939 5.17902761 -2.50298434 2.93828597 0 0 Z " fill="#F8C167" transform="translate(164,246)"/>
<path d="M0 0 C0.99 0.33 1.98 0.66 3 1 C0.66666667 3.33333333 -1.66666667 5.66666667 -4 8 C-4.99 7.67 -5.98 7.34 -7 7 C-4.69 4.69 -2.38 2.38 0 0 Z " fill="#A49F9F" transform="translate(172,249)"/>
<path d="M0 0 C-3.15656914 1.87055949 -5.35685706 2.18682784 -9 2 C-9.99 2 -10.98 2 -12 2 C-7.68866433 -1.5414543 -5.01745182 -3.04631004 0 0 Z " fill="#97896E" transform="translate(173,226)"/>
<path d="M0 0 C-3.13498292 1.85776765 -5.37471432 2.20140476 -9 2 C-9 1.01 -9 0.02 -9 -1 C-5.22102349 -2.0497157 -3.35080929 -2.10976881 0 0 Z " fill="#B0AAA6" transform="translate(207,270)"/>
<path d="M0 0 C-0.33 0.99 -0.66 1.98 -1 3 C-4.0625 4.1875 -4.0625 4.1875 -7 5 C-7.33 4.01 -7.66 3.02 -8 2 C-4.91190305 0.23537317 -3.76687864 0 0 0 Z " fill="#A6A19C" transform="translate(403,266)"/>
<path d="M0 0 C0.99 0 1.98 0 3 0 C3.33 1.65 3.66 3.3 4 5 C3.01 5.33 2.02 5.66 1 6 C0.67 6.66 0.34 7.32 0 8 C-0.66 7.67 -1.32 7.34 -2 7 C-1.34 4.69 -0.68 2.38 0 0 Z " fill="#9D8E70" transform="translate(303,255)"/>
<path d="M0 0 C0.99 0.33 1.98 0.66 3 1 C1.75453595 4.73639216 0.36595047 5.18756513 -3 7 C-2.25 2.25 -2.25 2.25 0 0 Z " fill="#DFB575" transform="translate(245,256)"/>
<path d="M0 0 C0.66 0 1.32 0 2 0 C2.33 0.99 2.66 1.98 3 3 C-1.75 6 -1.75 6 -4 6 C-2.84826645 3.53199953 -1.95216435 1.95216435 0 0 Z " fill="#E4BD88" transform="translate(193,228)"/>
<path d="M0 0 C2.31 0 4.62 0 7 0 C7 0.99 7 1.98 7 3 C5.02 3 3.04 3 1 3 C0.67 2.01 0.34 1.02 0 0 Z " fill="#968F83" transform="translate(341,268)"/>
<path d="M0 0 C2.0625 0.75 2.0625 0.75 4 2 C4.33 2.99 4.66 3.98 5 5 C4.01 5.495 4.01 5.495 3 6 C1.35 4.35 -0.3 2.7 -2 1 C-1.34 0.67 -0.68 0.34 0 0 Z " fill="#A9906F" transform="translate(194,266)"/>
<path d="M0 0 C0.8125 1.6875 0.8125 1.6875 1 4 C-1.4375 6.75 -1.4375 6.75 -4 9 C-3.46930939 5.17902761 -2.50298434 2.93828597 0 0 Z " fill="#776B5A" transform="translate(155,264)"/>
<path d="M0 0 C0.99 0 1.98 0 3 0 C2.67 1.65 2.34 3.3 2 5 C0.68 4.67 -0.64 4.34 -2 4 C-1.34 2.68 -0.68 1.36 0 0 Z " fill="#F7BC62" transform="translate(156,256)"/>
<path d="M0 0 C1.625 1.6875 1.625 1.6875 3 4 C2.375 6.6875 2.375 6.6875 1 9 C0.01 9.33 -0.98 9.66 -2 10 C-2 9.34 -2 8.68 -2 8 C-1.34 8 -0.68 8 0 8 C-0.2784375 6.2984375 -0.2784375 6.2984375 -0.5625 4.5625 C-0.7790625 2.7990625 -0.7790625 2.7990625 -1 1 C-0.67 0.67 -0.34 0.34 0 0 Z " fill="#E4AA5E" transform="translate(180,229)"/>
<path d="M0 0 C0.99 0.33 1.98 0.66 3 1 C-0.465 3.97 -0.465 3.97 -4 7 C-4.66 6.67 -5.32 6.34 -6 6 C-4.02 4.02 -2.04 2.04 0 0 Z " fill="#6A4F24" transform="translate(187,229)"/>
<path d="M0 0 C0.33 0.66 0.66 1.32 1 2 C-1.8125 3.5625 -1.8125 3.5625 -5 5 C-5.99 4.67 -6.98 4.34 -8 4 C-7.67 3.34 -7.34 2.68 -7 2 C-4.6859378 1.26924352 -2.35171131 0.59861742 0 0 Z " fill="#908B7E" transform="translate(206,228)"/>
<path d="M0 0 C-0.33 1.32 -0.66 2.64 -1 4 C-2.32 4 -3.64 4 -5 4 C-5 3.01 -5 2.02 -5 1 C-3 0 -3 0 0 0 Z " fill="#F6BA63" transform="translate(186,228)"/>
<path d="M0 0 C0.66 0 1.32 0 2 0 C2 0.66 2 1.32 2 2 C3.65 2.33 5.3 2.66 7 3 C7 3.66 7 4.32 7 5 C6.01 5.33 5.02 5.66 4 6 C4 5.01 4 4.02 4 3 C2.35 2.67 0.7 2.34 -1 2 C-0.67 1.34 -0.34 0.68 0 0 Z " fill="#C8BEAE" transform="translate(389,266)"/>
<path d="M0 0 C-0.33 0.99 -0.66 1.98 -1 3 C-4.0625 4.1875 -4.0625 4.1875 -7 5 C-7 4.01 -7 3.02 -7 2 C-4.35261084 0.5393715 -3.10551666 0 0 0 Z " fill="#CCC1A0" transform="translate(398,258)"/>
<path d="M0 0 C0.99 0.33 1.98 0.66 3 1 C2.67 1.66 2.34 2.32 2 3 C1.01 3 0.02 3 -1 3 C-1.33 3.99 -1.66 4.98 -2 6 C-2.66 6 -3.32 6 -4 6 C-4 5.01 -4 4.02 -4 3 C-2.1875 1.25 -2.1875 1.25 0 0 Z " fill="#77664A" transform="translate(295,259)"/>
<path d="M0 0 C-2 2 -2 2 -3.9453125 2.1953125 C-5.96354167 2.13020833 -7.98177083 2.06510417 -10 2 C-6.19832777 -0.53444815 -4.31588991 -1.33941411 0 0 Z " fill="#8D6C3D" transform="translate(189,221)"/>
<path d="M0 0 C0.99 0.33 1.98 0.66 3 1 C2.34 2.32 1.68 3.64 1 5 C-0.9375 4.6875 -0.9375 4.6875 -3 4 C-3.33 3.01 -3.66 2.02 -4 1 C-3.01 1.33 -2.02 1.66 -1 2 C-0.67 1.34 -0.34 0.68 0 0 Z " fill="#928E8A" transform="translate(153,270)"/>
<path d="M0 0 C1.98 0 3.96 0 6 0 C5.67 0.99 5.34 1.98 5 3 C3.02 3 1.04 3 -1 3 C-0.67 2.01 -0.34 1.02 0 0 Z " fill="#E4D5B6" transform="translate(198,266)"/>
<path d="M0 0 C0.99 0.33 1.98 0.66 3 1 C2.01 1.33 1.02 1.66 0 2 C-0.33 2.99 -0.66 3.98 -1 5 C-2.32 4.34 -3.64 3.68 -5 3 C-2.6875 1.4375 -2.6875 1.4375 0 0 Z " fill="#ECB373" transform="translate(297,251)"/>
<path d="M0 0 C0 0.66 0 1.32 0 2 C0.66 2.33 1.32 2.66 2 3 C-0.64 3 -3.28 3 -6 3 C-6 2.34 -6 1.68 -6 1 C-3 0 -3 0 0 0 Z " fill="#F7D27E" transform="translate(178,219)"/>
</svg>
