<?xml version="1.0" encoding="UTF-8"?>
<svg version="1.1" xmlns="http://www.w3.org/2000/svg" width="256" height="256">
<path d="M0 0 C1.37938206 -0.00243326 2.75876234 -0.00615774 4.13813782 -0.01106262 C7.85740389 -0.02040491 11.57640367 -0.01110135 15.29564881 0.00226951 C19.20797864 0.01366431 23.12029687 0.00947016 27.03263855 0.00752258 C33.60350847 0.00664182 40.1742748 0.01767175 46.74511719 0.03613281 C54.31136589 0.0572706 61.8774627 0.06081459 69.44373494 0.05457085 C76.75651835 0.0488481 84.06924897 0.05455867 91.38202477 0.0657444 C94.47776974 0.07035472 97.57348206 0.07127983 100.66922951 0.06915855 C104.32602088 0.06725532 107.98266081 0.07553331 111.63941765 0.09121895 C113.59893721 0.09738966 115.55847985 0.09398544 117.51800537 0.09014893 C128.53899876 0.15531312 139.45049977 0.47361359 149.03588867 6.37231445 C149.36588867 7.03231445 149.69588867 7.69231445 150.03588867 8.37231445 C150.75776367 8.47543945 151.47963867 8.57856445 152.22338867 8.68481445 C156.20588031 9.65831241 158.07597773 11.55007378 161.03588867 14.37231445 C161.03588867 15.03231445 161.03588867 15.69231445 161.03588867 16.37231445 C161.63272461 16.62368164 162.22956055 16.87504883 162.84448242 17.1340332 C167.78801038 19.92743492 171.54070763 26.38195236 174.03588867 31.37231445 C174.03588867 32.69231445 174.03588867 34.01231445 174.03588867 35.37231445 C174.69588867 35.37231445 175.35588867 35.37231445 176.03588867 35.37231445 C179.27557509 49.57174534 179.46089247 63.41203505 179.39916992 77.92700195 C179.39864998 80.3650004 179.39917286 82.80299927 179.40068054 85.24099731 C179.40059142 90.31901409 179.39028066 95.39687013 179.37207031 100.47485352 C179.34931262 106.96059277 179.34885881 113.44609933 179.35558796 119.9318676 C179.35893854 124.95407149 179.3522785 129.97622297 179.34245872 134.9984169 C179.33863071 137.38965709 179.33744847 139.78090312 179.33904457 142.17214584 C179.33941811 145.51616174 179.32671687 148.85988569 179.31054688 152.20385742 C179.31302429 153.1755336 179.31550171 154.14720978 179.3180542 155.14833069 C179.19197012 171.60154131 173.84779879 185.40834847 162.77416992 197.7355957 C158.15652343 202.08344712 153.52036285 206.37231445 147.03588867 206.37231445 C146.70588867 207.03231445 146.37588867 207.69231445 146.03588867 208.37231445 C141.90982569 210.09950361 138.48886298 210.58436085 134.03588867 210.37231445 C134.03588867 211.03231445 134.03588867 211.69231445 134.03588867 212.37231445 C132.850354 212.34089355 131.66481934 212.30947266 130.44335938 212.27709961 C126.0360848 212.16832829 121.62892827 212.09955605 117.22070312 212.04272461 C115.31457556 212.01258949 113.40858625 211.97167248 111.50292969 211.91967773 C108.7596628 211.8467147 106.0182315 211.81282687 103.27416992 211.78637695 C102.42502518 211.75540924 101.57588043 211.72444153 100.70100403 211.6925354 C96.25165472 211.63115787 96.25165472 211.63115787 92.44467163 213.64910889 C90.91036458 215.42908387 90.91036458 215.42908387 89.03588867 218.37231445 C84.51975964 223.21102413 84.51975964 223.21102413 81.03588867 224.37231445 C81.03588867 225.03231445 81.03588867 225.69231445 81.03588867 226.37231445 C80.37588867 226.37231445 79.71588867 226.37231445 79.03588867 226.37231445 C79.03588867 227.03231445 79.03588867 227.69231445 79.03588867 228.37231445 C78.37588867 228.37231445 77.71588867 228.37231445 77.03588867 228.37231445 C76.85026367 229.07356445 76.66463867 229.77481445 76.47338867 230.49731445 C74.75435173 233.93538834 72.67829233 235.60178616 69.69213867 237.94262695 C67.78327517 239.46156387 67.78327517 239.46156387 66.03588867 242.37231445 C65.37588867 242.37231445 64.71588867 242.37231445 64.03588867 242.37231445 C64.03588867 243.03231445 64.03588867 243.69231445 64.03588867 244.37231445 C63.37588867 244.37231445 62.71588867 244.37231445 62.03588867 244.37231445 C61.74713867 245.01168945 61.45838867 245.65106445 61.16088867 246.30981445 C60.03588867 248.37231445 60.03588867 248.37231445 58.03588867 249.37231445 C54.28363176 249.78923189 52.49577745 249.64824772 49.22338867 247.68481445 C46.73615825 245.05545658 46.30977054 243.92751176 46.03588867 240.37231445 C48.65816139 234.41353132 53.02369238 230.318086 58.03588867 226.37231445 C58.97685312 225.28877963 59.89419135 224.18424217 60.78588867 223.05981445 C61.52838867 222.17293945 62.27088867 221.28606445 63.03588867 220.37231445 C63.69588867 220.37231445 64.35588867 220.37231445 65.03588867 220.37231445 C65.36588867 219.38231445 65.69588867 218.39231445 66.03588867 217.37231445 C66.69588867 217.37231445 67.35588867 217.37231445 68.03588867 217.37231445 C68.41293945 216.5215332 68.41293945 216.5215332 68.79760742 215.65356445 C72.09529117 209.57833636 77.55550946 204.48259886 83.03588867 200.37231445 C83.53411133 199.68935303 84.03233398 199.0063916 84.5456543 198.30273438 C88.43945091 195.28427851 92.3337956 195.78847294 97.12963867 195.7980957 C98.11331421 195.78393112 99.09698975 195.76976654 100.11047363 195.75517273 C103.25238968 195.71325538 106.39373234 195.69803295 109.53588867 195.68481445 C112.67777723 195.65573624 115.81952108 195.62115264 118.96130371 195.58232117 C120.91558298 195.55988245 122.86995147 195.5440335 124.82434082 195.53547668 C125.71206177 195.52844223 126.59978271 195.52140778 127.5144043 195.51416016 C128.68211365 195.50894096 128.68211365 195.50894096 129.87341309 195.50361633 C132.04685349 195.37164869 133.93342874 194.91438332 136.03588867 194.37231445 C137.02588867 194.37231445 138.01588867 194.37231445 139.03588867 194.37231445 C139.03588867 193.71231445 139.03588867 193.05231445 139.03588867 192.37231445 C139.60436523 192.17637695 140.1728418 191.98043945 140.75854492 191.77856445 C147.61319348 189.12367553 152.69424712 185.05559755 156.03588867 178.37231445 C156.69588867 178.37231445 157.35588867 178.37231445 158.03588867 178.37231445 C158.36588867 176.39231445 158.69588867 174.41231445 159.03588867 172.37231445 C159.69588867 172.37231445 160.35588867 172.37231445 161.03588867 172.37231445 C160.70588867 171.38231445 160.37588867 170.39231445 160.03588867 169.37231445 C160.68420466 167.69842419 161.35277975 166.03230976 162.03588867 164.37231445 C162.33403384 161.95168234 162.33403384 161.95168234 162.29658508 159.42779541 C162.30366989 158.45788666 162.3107547 157.48797791 162.3180542 156.48867798 C162.31557678 155.43610809 162.31309937 154.38353821 162.31054688 153.29907227 C162.31565781 152.18138458 162.32076874 151.0636969 162.32603455 149.91213989 C162.33993631 146.21651862 162.33897294 142.52108378 162.33666992 138.82543945 C162.34055722 136.25339692 162.34489196 133.68135503 162.34965515 131.10931396 C162.35711915 125.71583709 162.35696377 120.32243234 162.3515625 114.92895508 C162.34553155 108.71177382 162.3578131 102.49481938 162.37913257 96.27767682 C162.39893693 90.2799677 162.40191442 84.2823765 162.39839745 78.28462982 C162.39890991 75.74100971 162.40413356 73.19738592 162.41420937 70.65378571 C162.42659083 67.09005964 162.41977063 63.52685296 162.40820312 59.96313477 C162.41584686 58.9186618 162.4234906 57.87418884 162.43136597 56.79806519 C162.37051771 48.28638542 160.55180198 41.29760471 156.09838867 33.99731445 C155.61499023 33.18520508 155.1315918 32.3730957 154.63354492 31.53637695 C152.98153992 29.29869781 151.25497719 28.01146839 149.03588867 26.37231445 C149.03588867 25.71231445 149.03588867 25.05231445 149.03588867 24.37231445 C147.94920898 23.94112305 147.94920898 23.94112305 146.84057617 23.5012207 C145.08910435 22.7962411 143.34315764 22.07717985 141.60620117 21.3371582 C140.79924805 20.99813477 139.99229492 20.65911133 139.16088867 20.30981445 C138.3590918 19.96821289 137.55729492 19.62661133 136.73120117 19.2746582 C129.3068898 16.78912787 121.54559723 17.22422682 113.80786133 17.22705078 C112.471694 17.22405483 111.13552753 17.2206513 109.79936218 17.21687317 C106.18564663 17.20807402 102.57195478 17.2056968 98.95822954 17.20505738 C96.69657046 17.20434464 94.43491733 17.20220609 92.17325974 17.19956017 C84.27199676 17.19032075 76.37075062 17.18622358 68.46948242 17.18701172 C61.12192317 17.18761236 53.77443736 17.17705968 46.42689669 17.16126806 C40.10309685 17.14816439 33.77932094 17.142829 27.45550764 17.14346713 C23.6854267 17.14372125 19.91541111 17.1409173 16.14534378 17.13028908 C12.59778897 17.12056019 9.05036137 17.12056149 5.5028019 17.12780571 C3.59256494 17.12933848 1.68232787 17.12103868 -0.22789001 17.11236572 C-8.25350498 17.14151161 -16.07444362 17.49356496 -23.33911133 21.30981445 C-23.9655957 21.62821289 -24.59208008 21.94661133 -25.23754883 22.2746582 C-27.04633987 23.33342845 -27.04633987 23.33342845 -28.56567383 25.0012207 C-29.96411133 26.37231445 -29.96411133 26.37231445 -31.96411133 26.37231445 C-32.29411133 27.36231445 -32.62411133 28.35231445 -32.96411133 29.37231445 C-33.96411133 30.37231445 -34.96411133 31.37231445 -35.96411133 32.37231445 C-42.7533736 41.83613459 -43.1107966 50.34222936 -43.15698242 61.625 C-43.16515991 62.73816086 -43.1733374 63.85132172 -43.1817627 64.99821472 C-43.20649947 68.66848222 -43.22310202 72.33871137 -43.23754883 76.0090332 C-43.24287251 77.26741312 -43.24819618 78.52579304 -43.25368118 79.82230568 C-43.27488228 85.11454948 -43.29401217 90.40678005 -43.30530357 95.69905376 C-43.32151904 103.24530708 -43.35467182 110.79104386 -43.41170442 118.33710259 C-43.45528031 124.30917126 -43.47106885 130.28100715 -43.47743607 136.2532444 C-43.48412942 138.78046155 -43.49930107 141.30767175 -43.52332687 143.83478355 C-43.55512198 147.3811351 -43.55499299 150.92619824 -43.54760742 154.47265625 C-43.56401276 155.50320129 -43.58041809 156.53374634 -43.59732056 157.59552002 C-43.53876872 164.51055589 -41.96072233 169.7057596 -39.03734779 175.97034931 C-37.96411133 178.37231445 -37.96411133 178.37231445 -37.96411133 180.37231445 C-37.09786133 180.74356445 -37.09786133 180.74356445 -36.21411133 181.12231445 C-33.63471154 182.55531434 -31.90289541 184.15656122 -29.96411133 186.37231445 C-29.96411133 187.03231445 -29.96411133 187.69231445 -29.96411133 188.37231445 C-29.26286133 188.64043945 -28.56161133 188.90856445 -27.83911133 189.18481445 C-24.96411133 190.37231445 -24.96411133 190.37231445 -22.02661133 191.87231445 C-15.91369059 194.86639808 -10.90114659 195.6542259 -4.20629883 195.64575195 C-2.51228163 195.66602634 -0.81827125 195.68687683 0.87573242 195.70825195 C3.52667039 195.73090533 6.17733857 195.74735059 8.82836914 195.75317383 C11.40063207 195.76268488 13.97170474 195.79642243 16.54370117 195.83325195 C17.33543732 195.82820648 18.12717346 195.82316101 18.94290161 195.81796265 C22.531496 195.88218489 24.61288331 196.05091045 27.51196289 198.25366211 C29.31306089 200.75765577 29.88555758 202.2905271 30.03588867 205.37231445 C29.09838867 208.18481445 29.09838867 208.18481445 28.03588867 210.37231445 C27.04588867 210.37231445 26.05588867 210.37231445 25.03588867 210.37231445 C24.70588867 211.03231445 24.37588867 211.69231445 24.03588867 212.37231445 C18.62820396 212.44686893 13.22082319 212.50110672 7.81274414 212.53710938 C5.97577701 212.55212942 4.13884534 212.57255154 2.30200195 212.59863281 C-0.34929187 212.63531648 -3.00010865 212.65210883 -5.65161133 212.6652832 C-6.46339844 212.68076706 -7.27518555 212.69625092 -8.11157227 212.71220398 C-13.74084914 212.71383888 -17.77883537 211.56349153 -22.96411133 209.37231445 C-24.1474707 209.06938477 -25.33083008 208.76645508 -26.55004883 208.4543457 C-30.39237098 207.23658456 -33.36016781 205.39654989 -36.58911133 203.05981445 C-37.13567383 202.68147461 -37.68223633 202.30313477 -38.24536133 201.91333008 C-43.76670376 198.01008441 -47.69468949 195.08211559 -48.96411133 188.37231445 C-49.58286133 188.08356445 -50.20161133 187.79481445 -50.83911133 187.49731445 C-54.18407309 185.72645234 -54.67946251 182.79804464 -55.96411133 179.37231445 C-56.29411133 178.71231445 -56.62411133 178.05231445 -56.96411133 177.37231445 C-56.63411133 176.38231445 -56.30411133 175.39231445 -55.96411133 174.37231445 C-56.62411133 174.37231445 -57.28411133 174.37231445 -57.96411133 174.37231445 C-59.81556293 166.84867844 -60.2248199 159.76815972 -60.13110352 152.04125977 C-60.12173012 150.25399223 -60.12173012 150.25399223 -60.11216736 148.43061829 C-60.09284113 145.19318227 -60.06428505 141.95600196 -60.03083324 138.7186861 C-59.99738157 135.31696169 -59.97428079 131.91516339 -59.94952393 128.5133667 C-59.90631573 122.80757533 -59.85447774 117.10191068 -59.79760742 111.39624023 C-59.73208723 104.81038542 -59.68110517 98.22453608 -59.63766551 91.63850141 C-59.59534132 85.28244009 -59.5420009 78.92651484 -59.48392487 72.57057953 C-59.45951903 69.87378053 -59.43907604 67.17699514 -59.42189789 64.48014069 C-59.39563052 60.71519731 -59.35683685 56.95058573 -59.31469727 53.18579102 C-59.30939499 52.07293228 -59.30409271 50.96007355 -59.29862976 49.81349182 C-59.22770124 44.62152901 -59.06139571 40.22191651 -56.96411133 35.37231445 C-56.30411133 35.37231445 -55.64411133 35.37231445 -54.96411133 35.37231445 C-54.80942383 34.32043945 -54.80942383 34.32043945 -54.65161133 33.24731445 C-53.8705213 29.98093798 -52.5435239 27.32512925 -50.96411133 24.37231445 C-50.30411133 24.37231445 -49.64411133 24.37231445 -48.96411133 24.37231445 C-48.90223633 23.83606445 -48.84036133 23.29981445 -48.77661133 22.74731445 C-47.58345292 19.25962066 -45.4572314 17.04351453 -42.96411133 14.37231445 C-41.97411133 14.04231445 -40.98411133 13.71231445 -39.96411133 13.37231445 C-39.32473633 12.71231445 -38.68536133 12.05231445 -38.02661133 11.37231445 C-35.85763652 9.26906615 -34.82102806 8.96340067 -31.96411133 8.37231445 C-31.63411133 7.71231445 -31.30411133 7.05231445 -30.96411133 6.37231445 C-28.63486328 5.23246967 -26.38695752 4.27431625 -23.96411133 3.37231445 C-22.92792648 2.97841884 -22.92792648 2.97841884 -21.8708086 2.57656574 C-14.5539021 0.08635477 -7.67751773 -0.04615669 0 0 Z " fill="#020102" transform="translate(68.964111328125,3.627685546875)"/>
<path d="M0 0 C1.05845627 -0.00156097 2.11691254 -0.00312195 3.20744324 -0.00473022 C4.36339996 0.00395584 5.51935669 0.01264191 6.71034241 0.02159119 C7.93184494 0.02302124 9.15334747 0.02445129 10.41186523 0.02592468 C13.75910244 0.03270764 17.10600899 0.04882259 20.45316386 0.07067418 C22.54508057 0.08383796 24.63699357 0.09433488 26.72892952 0.1039257 C34.02914707 0.13770349 41.3292 0.18295471 48.62928772 0.23789978 C55.43097327 0.28876287 62.23241912 0.31340711 69.03427309 0.32608992 C74.87742705 0.3382323 80.72028114 0.36947534 86.56326681 0.4153747 C90.05163747 0.44240979 93.53962012 0.46157482 97.02810478 0.46121407 C100.91867357 0.46152375 104.80828694 0.50147016 108.69862366 0.54502869 C109.85255615 0.53954514 111.00648865 0.53406158 112.19538879 0.52841187 C119.98292264 0.66179864 119.98292264 0.66179864 123.98843384 3.58798218 C126.17394085 6.83812397 126.50442005 8.39660545 125.7691803 12.2361908 C123.53711599 15.08399698 122.21925031 16.08616746 118.7691803 17.2361908 C117.06901295 17.32631295 115.36548675 17.35815299 113.66293335 17.35644531 C112.6070401 17.35781998 111.55114685 17.35919464 110.46325684 17.36061096 C109.30520035 17.35701569 108.14714386 17.35342041 106.95399475 17.34971619 C105.73436035 17.34986221 104.51472595 17.35000824 103.25813293 17.35015869 C99.91335179 17.34958097 96.56863219 17.34456205 93.22386193 17.33758473 C89.72848711 17.3313379 86.23311148 17.33074634 82.73773193 17.32955933 C76.11857963 17.32644994 69.49944383 17.31824183 62.88029879 17.30820984 C55.34470378 17.29703653 47.80910799 17.29153518 40.27350676 17.2865144 C24.77205505 17.2760589 9.2706198 17.25846703 -6.2308197 17.2361908 C-6.5608197 16.5761908 -6.8908197 15.9161908 -7.2308197 15.2361908 C-8.2208197 14.5761908 -9.2108197 13.9161908 -10.2308197 13.2361908 C-11.17952049 9.95222653 -11.37464703 7.81150013 -10.5433197 4.4861908 C-8.06622743 0.2397469 -4.64026949 -0.01375357 0 0 Z " fill="#010101" transform="translate(71.23081970214844,113.76380920410156)"/>
<path d="M0 0 C14.12527958 -0.16359048 28.2504121 -0.28652832 42.37644482 -0.3626852 C48.93562332 -0.3992349 55.49416599 -0.4488196 62.05297852 -0.52807617 C68.38130767 -0.60407002 74.70902485 -0.64597719 81.03777504 -0.6641407 C83.45361277 -0.6770864 85.86941657 -0.70236658 88.28499413 -0.7401104 C91.66623984 -0.79084722 95.04494926 -0.79792681 98.42651367 -0.79467773 C99.42776779 -0.81984467 100.42902191 -0.8450116 101.46061707 -0.87094116 C108.04127214 -0.8024106 108.04127214 -0.8024106 110.76827431 1.4799633 C113.35934449 4.86635458 114.03162697 6.36746053 113.8125 10.75 C111.75653952 14.43654983 110.268903 15.09601886 106.36241913 16.42517281 C102.09441846 17.46366882 97.88726953 17.37620325 93.51660156 17.31225586 C91.98829964 17.30792038 91.98829964 17.30792038 90.42912292 17.30349731 C87.08265425 17.28958881 83.7368966 17.25317897 80.390625 17.21484375 C78.05752125 17.19694748 75.72441137 17.17983368 73.39129639 17.16346741 C68.51249733 17.12551808 63.63398057 17.07603924 58.75537109 17.01879883 C52.49857769 16.94661329 46.24204313 16.90638945 39.98492813 16.87511349 C35.17215072 16.84701832 30.35968489 16.80048957 25.54711151 16.74850655 C23.23944925 16.72611316 20.93171909 16.70985481 18.62397003 16.69981194 C15.40404644 16.68335405 12.18540336 16.64173175 8.96582031 16.59350586 C7.53350319 16.5939817 7.53350319 16.5939817 6.07225037 16.59446716 C-0.3523174 16.46085167 -0.3523174 16.46085167 -3.59942627 14.15040588 C-5.4968074 11.23721434 -5.42706766 9.41654129 -5 6 C-4 3.625 -4 3.625 -3 2 C-2.01 2 -1.02 2 0 2 C0 1.34 0 0.68 0 0 Z " fill="#010101" transform="translate(65,70)"/>
<path d="M0 0 C0 3.52809907 -0.64276511 4.46815512 -3 7 C-3.99 7 -4.98 7 -6 7 C-6.33 5.68 -6.66 4.36 -7 3 C-4.69 2.01 -2.38 1.02 0 0 Z " fill="#09090B" transform="translate(44,7)"/>
<path d="M0 0 C0.99 0.99 1.98 1.98 3 3 C2.01 5.31 1.02 7.62 0 10 C-2 8 -2 8 -2.25 5.5625 C-2 3 -2 3 0 0 Z " fill="#0A090B" transform="translate(62,116)"/>
<path d="M0 0 C0.66 0 1.32 0 2 0 C3.39431504 2.78863007 3.25660094 4.92078868 3 8 C2.01 8.66 1.02 9.32 0 10 C-0.99088067 6.91726015 -0.92482533 5.08275109 0 2 C0 1.34 0 0.68 0 0 Z " fill="#070608" transform="translate(194,118)"/>
<path d="M0 0 C0.99 0.33 1.98 0.66 3 1 C2.34 1.66 1.68 2.32 1 3 C0.30251417 4.31747324 -0.36959957 5.64914193 -1 7 C-1.99 6.67 -2.98 6.34 -4 6 C-2.84826645 3.53199953 -1.95216435 1.95216435 0 0 Z " fill="#080507" transform="translate(132,224)"/>
<path d="" fill="#000000" transform="translate(0,0)"/>
<path d="" fill="#000000" transform="translate(0,0)"/>
</svg>
